<mxfile host="app.diagrams.net" modified="2023-04-03T01:59:20.980Z" agent="Mozilla/5.0 (Windows NT 10.0; Win64; x64) AppleWebKit/537.36 (KHTML, like Gecko) Chrome/111.0.0.0 Safari/537.36" etag="DJfyCGZRn5kCgXJ4ggrh" version="21.1.2" type="github">
  <diagram id="G3XjSvGXaePHlzciMrA_" name="Страница 1">
    <mxGraphModel dx="2479" dy="3553" grid="1" gridSize="10" guides="1" tooltips="1" connect="1" arrows="1" fold="1" page="1" pageScale="1" pageWidth="1654" pageHeight="2336" math="0" shadow="0">
      <root>
        <mxCell id="0" />
        <mxCell id="1" parent="0" />
        <mxCell id="HoNEbTMB3qzZL2JFvToc-1" value="" style="rounded=0;whiteSpace=wrap;html=1;" parent="1" vertex="1">
          <mxGeometry x="90" y="-2202" width="840" height="910" as="geometry" />
        </mxCell>
        <mxCell id="HoNEbTMB3qzZL2JFvToc-2" value="Авторизированный&lt;br&gt;клиент" style="shape=umlActor;verticalLabelPosition=bottom;verticalAlign=top;html=1;outlineConnect=0;" parent="1" vertex="1">
          <mxGeometry x="340" y="-2310" width="30" height="60" as="geometry" />
        </mxCell>
        <mxCell id="HoNEbTMB3qzZL2JFvToc-3" value="Неавторизированный&lt;br&gt;клиент" style="shape=umlActor;verticalLabelPosition=bottom;verticalAlign=top;html=1;outlineConnect=0;" parent="1" vertex="1">
          <mxGeometry x="200" y="-2310" width="30" height="60" as="geometry" />
        </mxCell>
        <mxCell id="HoNEbTMB3qzZL2JFvToc-4" value="Авторизация" style="ellipse;whiteSpace=wrap;html=1;" parent="1" vertex="1">
          <mxGeometry x="100" y="-2170" width="100" height="60" as="geometry" />
        </mxCell>
        <mxCell id="HoNEbTMB3qzZL2JFvToc-5" value="" style="endArrow=none;html=1;rounded=0;entryX=0;entryY=0.3333333333333333;entryDx=0;entryDy=0;entryPerimeter=0;" parent="1" source="HoNEbTMB3qzZL2JFvToc-4" target="HoNEbTMB3qzZL2JFvToc-3" edge="1">
          <mxGeometry width="50" height="50" relative="1" as="geometry">
            <mxPoint x="320" y="-2110" as="sourcePoint" />
            <mxPoint x="370" y="-2160" as="targetPoint" />
          </mxGeometry>
        </mxCell>
        <mxCell id="HoNEbTMB3qzZL2JFvToc-6" value="Посещение&amp;nbsp;&lt;br&gt;мобильного приложения" style="ellipse;whiteSpace=wrap;html=1;" parent="1" vertex="1">
          <mxGeometry x="410" y="-2180" width="120" height="80" as="geometry" />
        </mxCell>
        <mxCell id="HoNEbTMB3qzZL2JFvToc-7" value="" style="endArrow=none;html=1;rounded=0;entryX=1;entryY=0.3333333333333333;entryDx=0;entryDy=0;entryPerimeter=0;" parent="1" source="HoNEbTMB3qzZL2JFvToc-6" target="HoNEbTMB3qzZL2JFvToc-2" edge="1">
          <mxGeometry width="50" height="50" relative="1" as="geometry">
            <mxPoint x="320" y="-2190" as="sourcePoint" />
            <mxPoint x="370" y="-2240" as="targetPoint" />
          </mxGeometry>
        </mxCell>
        <mxCell id="HoNEbTMB3qzZL2JFvToc-8" value="Просмотр меню" style="ellipse;whiteSpace=wrap;html=1;" parent="1" vertex="1">
          <mxGeometry x="370" y="-2070" width="120" height="80" as="geometry" />
        </mxCell>
        <mxCell id="HoNEbTMB3qzZL2JFvToc-9" value="" style="endArrow=classic;html=1;rounded=0;entryX=0.5;entryY=0;entryDx=0;entryDy=0;exitX=0.5;exitY=1;exitDx=0;exitDy=0;" parent="1" source="HoNEbTMB3qzZL2JFvToc-6" target="HoNEbTMB3qzZL2JFvToc-8" edge="1">
          <mxGeometry width="50" height="50" relative="1" as="geometry">
            <mxPoint x="320" y="-2030" as="sourcePoint" />
            <mxPoint x="370" y="-2080" as="targetPoint" />
          </mxGeometry>
        </mxCell>
        <mxCell id="HoNEbTMB3qzZL2JFvToc-10" value="Оформление заказа" style="ellipse;whiteSpace=wrap;html=1;" parent="1" vertex="1">
          <mxGeometry x="190" y="-1960" width="120" height="80" as="geometry" />
        </mxCell>
        <mxCell id="HoNEbTMB3qzZL2JFvToc-11" value="" style="html=1;verticalAlign=bottom;endArrow=open;dashed=1;endSize=8;rounded=0;exitX=1;exitY=0;exitDx=0;exitDy=0;entryX=0;entryY=0.5;entryDx=0;entryDy=0;" parent="1" source="HoNEbTMB3qzZL2JFvToc-10" target="HoNEbTMB3qzZL2JFvToc-13" edge="1">
          <mxGeometry relative="1" as="geometry">
            <mxPoint x="200" y="-1940" as="sourcePoint" />
            <mxPoint x="310" y="-1860" as="targetPoint" />
          </mxGeometry>
        </mxCell>
        <mxCell id="HoNEbTMB3qzZL2JFvToc-12" value="include" style="edgeLabel;html=1;align=center;verticalAlign=middle;resizable=0;points=[];rotation=15;" parent="HoNEbTMB3qzZL2JFvToc-11" vertex="1" connectable="0">
          <mxGeometry x="0.6253" y="-3" relative="1" as="geometry">
            <mxPoint x="-22" y="-23" as="offset" />
          </mxGeometry>
        </mxCell>
        <mxCell id="HoNEbTMB3qzZL2JFvToc-13" value="Ввод данных карты&amp;nbsp;" style="ellipse;whiteSpace=wrap;html=1;" parent="1" vertex="1">
          <mxGeometry x="378.75" y="-1960" width="102.5" height="70" as="geometry" />
        </mxCell>
        <mxCell id="HoNEbTMB3qzZL2JFvToc-14" value="" style="html=1;verticalAlign=bottom;endArrow=open;dashed=1;endSize=8;rounded=0;exitX=0.768;exitY=0.029;exitDx=0;exitDy=0;entryX=0;entryY=1;entryDx=0;entryDy=0;exitPerimeter=0;" parent="1" source="HoNEbTMB3qzZL2JFvToc-10" target="HoNEbTMB3qzZL2JFvToc-8" edge="1">
          <mxGeometry relative="1" as="geometry">
            <mxPoint x="204.93000000000006" y="-1943.28" as="sourcePoint" />
            <mxPoint x="300.0035931287962" y="-1969.9957287525335" as="targetPoint" />
          </mxGeometry>
        </mxCell>
        <mxCell id="HoNEbTMB3qzZL2JFvToc-15" value="include" style="edgeLabel;html=1;align=center;verticalAlign=middle;resizable=0;points=[];rotation=-25;" parent="HoNEbTMB3qzZL2JFvToc-14" vertex="1" connectable="0">
          <mxGeometry x="0.6253" y="-3" relative="1" as="geometry">
            <mxPoint x="-39" y="1" as="offset" />
          </mxGeometry>
        </mxCell>
        <mxCell id="HoNEbTMB3qzZL2JFvToc-16" value="Кассир" style="shape=umlActor;verticalLabelPosition=bottom;verticalAlign=top;html=1;outlineConnect=0;" parent="1" vertex="1">
          <mxGeometry x="451.25" y="-1250" width="30" height="60" as="geometry" />
        </mxCell>
        <mxCell id="HoNEbTMB3qzZL2JFvToc-17" value="Просмотр&amp;nbsp;&lt;br&gt;Оформленных заказов" style="ellipse;whiteSpace=wrap;html=1;" parent="1" vertex="1">
          <mxGeometry x="600" y="-1490" width="120" height="80" as="geometry" />
        </mxCell>
        <mxCell id="HoNEbTMB3qzZL2JFvToc-18" value="Получение чека" style="ellipse;whiteSpace=wrap;html=1;" parent="1" vertex="1">
          <mxGeometry x="110" y="-2070" width="100" height="70" as="geometry" />
        </mxCell>
        <mxCell id="HoNEbTMB3qzZL2JFvToc-19" value="" style="html=1;verticalAlign=bottom;endArrow=open;dashed=1;endSize=8;rounded=0;exitX=0.5;exitY=1;exitDx=0;exitDy=0;entryX=0;entryY=0;entryDx=0;entryDy=0;" parent="1" source="HoNEbTMB3qzZL2JFvToc-18" target="HoNEbTMB3qzZL2JFvToc-10" edge="1">
          <mxGeometry relative="1" as="geometry">
            <mxPoint x="510" y="-2270" as="sourcePoint" />
            <mxPoint x="615.7543511029912" y="-2313.8103668762196" as="targetPoint" />
          </mxGeometry>
        </mxCell>
        <mxCell id="HoNEbTMB3qzZL2JFvToc-20" value="include" style="edgeLabel;html=1;align=center;verticalAlign=middle;resizable=0;points=[];rotation=45;" parent="HoNEbTMB3qzZL2JFvToc-19" vertex="1" connectable="0">
          <mxGeometry x="0.6253" y="-3" relative="1" as="geometry">
            <mxPoint x="4" y="-24" as="offset" />
          </mxGeometry>
        </mxCell>
        <mxCell id="HoNEbTMB3qzZL2JFvToc-21" value="" style="endArrow=none;html=1;rounded=0;entryX=0;entryY=0.3333333333333333;entryDx=0;entryDy=0;entryPerimeter=0;exitX=0.5;exitY=0;exitDx=0;exitDy=0;" parent="1" source="HoNEbTMB3qzZL2JFvToc-10" target="HoNEbTMB3qzZL2JFvToc-2" edge="1">
          <mxGeometry width="50" height="50" relative="1" as="geometry">
            <mxPoint x="240" y="-2090" as="sourcePoint" />
            <mxPoint x="290" y="-2140" as="targetPoint" />
          </mxGeometry>
        </mxCell>
        <mxCell id="HoNEbTMB3qzZL2JFvToc-22" value="Получение информации о заказанных напитках" style="ellipse;whiteSpace=wrap;html=1;" parent="1" vertex="1">
          <mxGeometry x="740" y="-1420" width="150" height="90" as="geometry" />
        </mxCell>
        <mxCell id="HoNEbTMB3qzZL2JFvToc-23" value="передача информации о&lt;br&gt;оформленых заказах" style="ellipse;whiteSpace=wrap;html=1;" parent="1" vertex="1">
          <mxGeometry x="577" y="-1380" width="120" height="80" as="geometry" />
        </mxCell>
        <mxCell id="HoNEbTMB3qzZL2JFvToc-24" value="" style="html=1;verticalAlign=bottom;endArrow=open;dashed=1;endSize=8;rounded=0;exitX=1;exitY=0.5;exitDx=0;exitDy=0;entryX=1;entryY=1;entryDx=0;entryDy=0;" parent="1" source="HoNEbTMB3qzZL2JFvToc-23" target="HoNEbTMB3qzZL2JFvToc-17" edge="1">
          <mxGeometry relative="1" as="geometry">
            <mxPoint x="-160" y="-1690" as="sourcePoint" />
            <mxPoint x="-73.67640687119592" y="-1666.715728752538" as="targetPoint" />
          </mxGeometry>
        </mxCell>
        <mxCell id="HoNEbTMB3qzZL2JFvToc-25" value="include" style="edgeLabel;html=1;align=center;verticalAlign=middle;resizable=0;points=[];rotation=90;" parent="HoNEbTMB3qzZL2JFvToc-24" vertex="1" connectable="0">
          <mxGeometry x="0.6253" y="-3" relative="1" as="geometry">
            <mxPoint x="6" y="25" as="offset" />
          </mxGeometry>
        </mxCell>
        <mxCell id="HoNEbTMB3qzZL2JFvToc-26" value="Получение информации о заказанных блюдах" style="ellipse;whiteSpace=wrap;html=1;" parent="1" vertex="1">
          <mxGeometry x="120" y="-1445" width="150" height="90" as="geometry" />
        </mxCell>
        <mxCell id="HoNEbTMB3qzZL2JFvToc-27" value="Повар" style="shape=umlActor;verticalLabelPosition=bottom;verticalAlign=top;html=1;outlineConnect=0;" parent="1" vertex="1">
          <mxGeometry x="30" y="-1505" width="30" height="60" as="geometry" />
        </mxCell>
        <mxCell id="HoNEbTMB3qzZL2JFvToc-28" value="Бариста" style="shape=umlActor;verticalLabelPosition=bottom;verticalAlign=top;html=1;outlineConnect=0;" parent="1" vertex="1">
          <mxGeometry x="950" y="-1480" width="30" height="60" as="geometry" />
        </mxCell>
        <mxCell id="HoNEbTMB3qzZL2JFvToc-29" value="" style="endArrow=none;html=1;rounded=0;entryX=1;entryY=0.3333333333333333;entryDx=0;entryDy=0;entryPerimeter=0;exitX=0;exitY=0.5;exitDx=0;exitDy=0;" parent="1" source="HoNEbTMB3qzZL2JFvToc-26" target="HoNEbTMB3qzZL2JFvToc-27" edge="1">
          <mxGeometry width="50" height="50" relative="1" as="geometry">
            <mxPoint x="320" y="-1440" as="sourcePoint" />
            <mxPoint x="370" y="-1490" as="targetPoint" />
          </mxGeometry>
        </mxCell>
        <mxCell id="HoNEbTMB3qzZL2JFvToc-30" value="" style="endArrow=none;html=1;rounded=0;entryX=0;entryY=0.3333333333333333;entryDx=0;entryDy=0;entryPerimeter=0;exitX=1;exitY=0.5;exitDx=0;exitDy=0;" parent="1" source="HoNEbTMB3qzZL2JFvToc-22" target="HoNEbTMB3qzZL2JFvToc-28" edge="1">
          <mxGeometry width="50" height="50" relative="1" as="geometry">
            <mxPoint x="320" y="-1440" as="sourcePoint" />
            <mxPoint x="370" y="-1490" as="targetPoint" />
          </mxGeometry>
        </mxCell>
        <mxCell id="HoNEbTMB3qzZL2JFvToc-31" value="" style="endArrow=none;html=1;rounded=0;entryX=0.5;entryY=1;entryDx=0;entryDy=0;exitX=1;exitY=0.3333333333333333;exitDx=0;exitDy=0;exitPerimeter=0;" parent="1" source="HoNEbTMB3qzZL2JFvToc-16" target="HoNEbTMB3qzZL2JFvToc-23" edge="1">
          <mxGeometry width="50" height="50" relative="1" as="geometry">
            <mxPoint x="430" y="-1440" as="sourcePoint" />
            <mxPoint x="480" y="-1490" as="targetPoint" />
          </mxGeometry>
        </mxCell>
        <mxCell id="HoNEbTMB3qzZL2JFvToc-32" value="" style="html=1;verticalAlign=bottom;endArrow=open;dashed=1;endSize=8;rounded=0;exitX=0.5;exitY=1;exitDx=0;exitDy=0;" parent="1" source="HoNEbTMB3qzZL2JFvToc-10" target="HoNEbTMB3qzZL2JFvToc-34" edge="1">
          <mxGeometry relative="1" as="geometry">
            <mxPoint x="580" y="-2270" as="sourcePoint" />
            <mxPoint x="740" y="-2270" as="targetPoint" />
          </mxGeometry>
        </mxCell>
        <mxCell id="HoNEbTMB3qzZL2JFvToc-33" value="include" style="edgeLabel;html=1;align=center;verticalAlign=middle;resizable=0;points=[];rotation=60;" parent="HoNEbTMB3qzZL2JFvToc-32" vertex="1" connectable="0">
          <mxGeometry x="0.6253" y="-3" relative="1" as="geometry">
            <mxPoint x="1" y="-34" as="offset" />
          </mxGeometry>
        </mxCell>
        <mxCell id="HoNEbTMB3qzZL2JFvToc-34" value="оплата заказа" style="ellipse;whiteSpace=wrap;html=1;" parent="1" vertex="1">
          <mxGeometry x="258.75" y="-1820" width="120" height="80" as="geometry" />
        </mxCell>
        <mxCell id="HoNEbTMB3qzZL2JFvToc-35" value="изменение статуса заказа" style="ellipse;whiteSpace=wrap;html=1;" parent="1" vertex="1">
          <mxGeometry x="420" y="-1550" width="120" height="80" as="geometry" />
        </mxCell>
        <mxCell id="HoNEbTMB3qzZL2JFvToc-36" value="" style="endArrow=none;html=1;rounded=0;entryX=0;entryY=0.3333333333333333;entryDx=0;entryDy=0;entryPerimeter=0;exitX=1;exitY=0.5;exitDx=0;exitDy=0;" parent="1" source="HoNEbTMB3qzZL2JFvToc-35" target="HoNEbTMB3qzZL2JFvToc-28" edge="1">
          <mxGeometry width="50" height="50" relative="1" as="geometry">
            <mxPoint x="580" y="-1630" as="sourcePoint" />
            <mxPoint x="630" y="-1680" as="targetPoint" />
          </mxGeometry>
        </mxCell>
        <mxCell id="HoNEbTMB3qzZL2JFvToc-37" value="" style="endArrow=none;html=1;rounded=0;entryX=1;entryY=0.3333333333333333;entryDx=0;entryDy=0;entryPerimeter=0;exitX=0;exitY=0.5;exitDx=0;exitDy=0;" parent="1" source="HoNEbTMB3qzZL2JFvToc-35" target="HoNEbTMB3qzZL2JFvToc-27" edge="1">
          <mxGeometry width="50" height="50" relative="1" as="geometry">
            <mxPoint x="580" y="-1630" as="sourcePoint" />
            <mxPoint x="630" y="-1680" as="targetPoint" />
          </mxGeometry>
        </mxCell>
        <mxCell id="HoNEbTMB3qzZL2JFvToc-38" value="Проверка статусов готовности заказов&lt;br&gt;и их наличие" style="ellipse;whiteSpace=wrap;html=1;" parent="1" vertex="1">
          <mxGeometry x="560" y="-2110" width="120" height="90" as="geometry" />
        </mxCell>
        <mxCell id="HoNEbTMB3qzZL2JFvToc-39" value="" style="endArrow=classic;html=1;rounded=0;entryX=0;entryY=0;entryDx=0;entryDy=0;exitX=1;exitY=0.5;exitDx=0;exitDy=0;" parent="1" source="HoNEbTMB3qzZL2JFvToc-6" target="HoNEbTMB3qzZL2JFvToc-38" edge="1">
          <mxGeometry width="50" height="50" relative="1" as="geometry">
            <mxPoint x="580" y="-1930" as="sourcePoint" />
            <mxPoint x="630" y="-1980" as="targetPoint" />
          </mxGeometry>
        </mxCell>
        <mxCell id="HoNEbTMB3qzZL2JFvToc-40" value="Официант" style="shape=umlActor;verticalLabelPosition=bottom;verticalAlign=top;html=1;outlineConnect=0;" parent="1" vertex="1">
          <mxGeometry x="970" y="-1730" width="30" height="60" as="geometry" />
        </mxCell>
        <mxCell id="HoNEbTMB3qzZL2JFvToc-41" value="&quot;в процессе &quot; изменение статуса заказа на&lt;br&gt;&quot;в процессе &quot;" style="ellipse;whiteSpace=wrap;html=1;" parent="1" vertex="1">
          <mxGeometry x="400" y="-1680" width="130" height="80" as="geometry" />
        </mxCell>
        <mxCell id="HoNEbTMB3qzZL2JFvToc-42" value="изменение статуса заказа на&lt;br&gt;&quot;готов&quot;" style="ellipse;whiteSpace=wrap;html=1;" parent="1" vertex="1">
          <mxGeometry x="560" y="-1615" width="120" height="80" as="geometry" />
        </mxCell>
        <mxCell id="HoNEbTMB3qzZL2JFvToc-43" value="изменение статуса заказа на&lt;br&gt;&quot;в очереди&quot;" style="ellipse;whiteSpace=wrap;html=1;" parent="1" vertex="1">
          <mxGeometry x="295" y="-1615" width="120" height="80" as="geometry" />
        </mxCell>
        <mxCell id="HoNEbTMB3qzZL2JFvToc-44" value="" style="endArrow=classic;html=1;rounded=0;entryX=0.5;entryY=1;entryDx=0;entryDy=0;exitX=0.5;exitY=0;exitDx=0;exitDy=0;" parent="1" source="HoNEbTMB3qzZL2JFvToc-35" target="HoNEbTMB3qzZL2JFvToc-41" edge="1">
          <mxGeometry width="50" height="50" relative="1" as="geometry">
            <mxPoint x="580" y="-1530" as="sourcePoint" />
            <mxPoint x="630" y="-1580" as="targetPoint" />
          </mxGeometry>
        </mxCell>
        <mxCell id="HoNEbTMB3qzZL2JFvToc-45" value="" style="endArrow=classic;html=1;rounded=0;entryX=1;entryY=1;entryDx=0;entryDy=0;exitX=0;exitY=0;exitDx=0;exitDy=0;" parent="1" source="HoNEbTMB3qzZL2JFvToc-35" target="HoNEbTMB3qzZL2JFvToc-43" edge="1">
          <mxGeometry width="50" height="50" relative="1" as="geometry">
            <mxPoint x="580" y="-1530" as="sourcePoint" />
            <mxPoint x="630" y="-1580" as="targetPoint" />
          </mxGeometry>
        </mxCell>
        <mxCell id="HoNEbTMB3qzZL2JFvToc-46" value="" style="endArrow=classic;html=1;rounded=0;entryX=0;entryY=1;entryDx=0;entryDy=0;exitX=1;exitY=0;exitDx=0;exitDy=0;" parent="1" source="HoNEbTMB3qzZL2JFvToc-35" target="HoNEbTMB3qzZL2JFvToc-42" edge="1">
          <mxGeometry width="50" height="50" relative="1" as="geometry">
            <mxPoint x="580" y="-1530" as="sourcePoint" />
            <mxPoint x="630" y="-1580" as="targetPoint" />
          </mxGeometry>
        </mxCell>
        <mxCell id="HoNEbTMB3qzZL2JFvToc-47" value="Получение информации о готовых заказах" style="ellipse;whiteSpace=wrap;html=1;" parent="1" vertex="1">
          <mxGeometry x="770" y="-1670" width="120" height="80" as="geometry" />
        </mxCell>
        <mxCell id="HoNEbTMB3qzZL2JFvToc-48" value="" style="endArrow=none;html=1;rounded=0;entryX=0;entryY=0.3333333333333333;entryDx=0;entryDy=0;entryPerimeter=0;exitX=1;exitY=0.5;exitDx=0;exitDy=0;" parent="1" source="HoNEbTMB3qzZL2JFvToc-47" target="HoNEbTMB3qzZL2JFvToc-40" edge="1">
          <mxGeometry width="50" height="50" relative="1" as="geometry">
            <mxPoint x="580" y="-1680" as="sourcePoint" />
            <mxPoint x="630" y="-1730" as="targetPoint" />
          </mxGeometry>
        </mxCell>
        <mxCell id="HoNEbTMB3qzZL2JFvToc-49" value="" style="html=1;verticalAlign=bottom;endArrow=open;dashed=1;endSize=8;rounded=0;exitX=0;exitY=1;exitDx=0;exitDy=0;entryX=0.961;entryY=0.317;entryDx=0;entryDy=0;entryPerimeter=0;" parent="1" source="HoNEbTMB3qzZL2JFvToc-47" target="HoNEbTMB3qzZL2JFvToc-42" edge="1">
          <mxGeometry relative="1" as="geometry">
            <mxPoint x="1310" y="-1840" as="sourcePoint" />
            <mxPoint x="1315.4264068711927" y="-1921.715728752538" as="targetPoint" />
          </mxGeometry>
        </mxCell>
        <mxCell id="HoNEbTMB3qzZL2JFvToc-50" value="include" style="edgeLabel;html=1;align=center;verticalAlign=middle;resizable=0;points=[];rotation=-5;" parent="HoNEbTMB3qzZL2JFvToc-49" vertex="1" connectable="0">
          <mxGeometry x="0.6253" y="-3" relative="1" as="geometry">
            <mxPoint x="34" y="-15" as="offset" />
          </mxGeometry>
        </mxCell>
        <mxCell id="HoNEbTMB3qzZL2JFvToc-51" value="" style="html=1;verticalAlign=bottom;endArrow=open;dashed=1;endSize=8;rounded=0;exitX=0.5;exitY=1;exitDx=0;exitDy=0;entryX=0.783;entryY=0.071;entryDx=0;entryDy=0;entryPerimeter=0;" parent="1" source="HoNEbTMB3qzZL2JFvToc-38" target="HoNEbTMB3qzZL2JFvToc-35" edge="1">
          <mxGeometry relative="1" as="geometry">
            <mxPoint x="1220" y="-1830" as="sourcePoint" />
            <mxPoint x="1225.4264068711927" y="-1911.715728752538" as="targetPoint" />
          </mxGeometry>
        </mxCell>
        <mxCell id="HoNEbTMB3qzZL2JFvToc-52" value="include" style="edgeLabel;html=1;align=center;verticalAlign=middle;resizable=0;points=[];rotation=100;" parent="HoNEbTMB3qzZL2JFvToc-51" vertex="1" connectable="0">
          <mxGeometry x="0.6253" y="-3" relative="1" as="geometry">
            <mxPoint x="59" y="-196" as="offset" />
          </mxGeometry>
        </mxCell>
        <mxCell id="HoNEbTMB3qzZL2JFvToc-53" value="" style="endArrow=none;html=1;rounded=0;fontSize=14;entryX=0;entryY=0.3333333333333333;entryDx=0;entryDy=0;entryPerimeter=0;exitX=1;exitY=0.5;exitDx=0;exitDy=0;" parent="1" source="HoNEbTMB3qzZL2JFvToc-55" target="HoNEbTMB3qzZL2JFvToc-40" edge="1">
          <mxGeometry width="50" height="50" relative="1" as="geometry">
            <mxPoint x="580" y="-1660" as="sourcePoint" />
            <mxPoint x="630" y="-1710" as="targetPoint" />
          </mxGeometry>
        </mxCell>
        <mxCell id="HoNEbTMB3qzZL2JFvToc-55" value="Изменение статуса заказа на &quot;готов, уже в пути&quot;" style="ellipse;whiteSpace=wrap;html=1;fontSize=14;" parent="1" vertex="1">
          <mxGeometry x="740" y="-1787" width="160" height="80" as="geometry" />
        </mxCell>
      </root>
    </mxGraphModel>
  </diagram>
</mxfile>
